<svg width="40" height="40" viewBox="0 0 40 40" fill="none" xmlns="http://www.w3.org/2000/svg">
<rect x="0.5" y="0.5" width="39" height="39" rx="19.5" stroke="#222222"/>
<path d="M13.0936 23.1242C9.96475 26.4084 10.5519 28.7757 11.4623 29.9827C11.595 30.1586 11.7582 30.3107 11.944 30.4292C14.2361 31.8918 17.1505 29.7362 17.8215 28.4816C22.0157 22.0946 25.152 21.9926 27.18 18.2861C29.6397 13.435 29.8064 10.9126 28.2597 9.61894C28.1128 9.49607 27.9446 9.39856 27.7681 9.32426C24.0873 7.77496 19.7955 11.7295 18.5243 14.5028C17.2227 17.3423 15.0929 21.0256 13.0936 23.1242Z" stroke="#222222" stroke-width="1.5" stroke-linecap="round" stroke-linejoin="round"/>
<path fill-rule="evenodd" clip-rule="evenodd" d="M22.5689 9.78842C22.1717 9.67093 21.7545 9.89769 21.637 10.2949C21.5195 10.6921 21.7463 11.1093 22.1435 11.2268C22.6389 11.3734 23.0555 11.5308 23.4118 11.6966C23.114 11.9147 22.8198 12.1647 22.5387 12.4365C21.9263 12.1001 21.2271 11.7985 20.4068 11.5477C20.0107 11.4266 19.5914 11.6496 19.4703 12.0457C19.3492 12.4418 19.5721 12.8611 19.9682 12.9822C20.5541 13.1613 21.0661 13.3683 21.523 13.5972C21.2981 13.9031 21.0982 14.2175 20.9325 14.5309C20.8803 14.6296 20.8285 14.7255 20.777 14.819C20.2328 14.4953 19.6296 14.2014 18.9531 13.957C18.5635 13.8162 18.1336 14.0179 17.9928 14.4075C17.8521 14.797 18.0538 15.2269 18.4433 15.3677C19.0166 15.5749 19.5302 15.8237 19.9982 16.101C19.787 16.4173 19.576 16.7123 19.3607 17.0047C18.8438 16.6247 18.2915 16.3113 17.6918 16.1415C17.2932 16.0286 16.8787 16.2602 16.7658 16.6587C16.6529 17.0572 16.8845 17.4718 17.283 17.5847C17.6762 17.6961 18.0607 17.9097 18.4647 18.2076C18.2409 18.5125 18.0082 18.8376 17.7657 19.1958C17.3569 18.8816 16.9177 18.6065 16.4354 18.4159C16.0501 18.2637 15.6145 18.4527 15.4623 18.8379C15.3101 19.2232 15.499 19.6588 15.8843 19.811C16.6275 20.1046 17.2723 20.7094 18.1087 21.5175L18.1497 21.5571C18.9418 22.3225 19.873 23.2223 21.1032 23.8674C21.47 24.0598 21.9233 23.9183 22.1157 23.5515C22.3081 23.1847 22.1666 22.7313 21.7998 22.539C21.4352 22.3478 21.1001 22.1286 20.7829 21.89C21.047 21.4801 21.2782 21.1802 21.4913 20.9453C21.9929 21.3748 22.5354 21.7898 23.1272 22.1434C23.4828 22.3559 23.9433 22.2399 24.1557 21.8843C24.3682 21.5288 24.2522 21.0683 23.8966 20.8558C23.4611 20.5955 23.0556 20.2965 22.6663 19.9743C22.94 19.7781 23.2532 19.545 23.5907 19.2451C24.0263 19.6817 24.4806 20.106 24.9761 20.4478C25.3171 20.683 25.7842 20.5973 26.0194 20.2563C26.2545 19.9153 26.1688 19.4483 25.8278 19.2131C25.4343 18.9417 25.0458 18.5817 24.6109 18.1437C24.6092 18.1421 24.6075 18.1404 24.6058 18.1387C24.8861 17.7763 25.1777 17.3604 25.461 16.9208C25.8389 17.3006 26.2452 17.6845 26.7046 18.0529C27.0278 18.3121 27.4998 18.2603 27.759 17.9371C28.0181 17.614 27.9663 17.142 27.6432 16.8828C27.1391 16.4785 26.6973 16.0445 26.2529 15.5861C26.2972 15.5047 26.3406 15.4234 26.383 15.3424C26.494 15.1304 26.6005 14.9168 26.6999 14.7045C27.0573 15.0373 27.4857 15.3655 28.0295 15.6634C28.3927 15.8625 28.8486 15.7293 29.0476 15.3661C29.2466 15.0028 29.1135 14.547 28.7503 14.3479C28.0814 13.9815 27.6688 13.5915 27.2827 13.1495C27.3549 12.8618 27.402 12.5662 27.3944 12.2875C27.3862 11.987 27.3102 11.5979 27.01 11.2992C26.5065 10.7981 25.8514 10.7128 25.2646 10.8182C25.181 10.8332 25.0973 10.8522 25.0137 10.8748C24.4037 10.4713 23.6265 10.1012 22.5689 9.78842ZM24.7849 12.5902C24.9933 12.7788 25.1719 12.9714 25.3397 13.1653C25.4254 13.2644 25.5111 13.368 25.5987 13.4752C25.4794 13.7773 25.3287 14.1076 25.1539 14.4529C25.0268 14.3267 24.8972 14.201 24.7648 14.0771C24.4743 13.8053 24.167 13.5388 23.8327 13.2825C24.0329 13.1057 24.2382 12.9443 24.4432 12.804C24.5613 12.7231 24.6755 12.6519 24.7849 12.5902ZM22.8057 14.3866C22.5934 14.6651 22.407 14.9513 22.2585 15.232C22.1775 15.3852 22.0973 15.5324 22.0177 15.6744C22.4474 16.0127 22.8355 16.3629 23.194 16.7086C23.3127 16.823 23.4301 16.939 23.5457 17.0549C23.8166 16.692 24.1062 16.2659 24.3878 15.8113C24.1761 15.594 23.9637 15.3818 23.7399 15.1724C23.449 14.9001 23.1426 14.6366 22.8057 14.3866ZM22.5413 18.1719C22.4159 18.0456 22.2873 17.918 22.1528 17.7884C21.8611 17.5071 21.5551 17.2292 21.2267 16.9624C20.9859 17.3218 20.7475 17.6524 20.508 17.9762C20.625 18.0853 20.7403 18.1948 20.8543 18.3035C20.956 18.4006 21.0572 18.4979 21.1582 18.5949L21.1588 18.5955L21.1588 18.5955C21.2804 18.7123 21.4017 18.8288 21.5232 18.9445C21.5908 18.896 21.6565 18.8494 21.7215 18.8035L21.7215 18.8035C21.9869 18.6159 22.2386 18.4379 22.5413 18.1719ZM20.3849 19.9324C20.2956 19.8469 20.2077 19.7623 20.1211 19.679L20.1209 19.6788C20.0182 19.58 19.9175 19.483 19.8184 19.3885C19.7467 19.32 19.676 19.2529 19.6064 19.1875C19.3785 19.4995 19.1451 19.829 18.9002 20.1969C18.9705 20.2644 19.0401 20.3316 19.1092 20.3983L19.1509 20.4387C19.313 20.5952 19.474 20.7507 19.6362 20.9037C19.9012 20.5077 20.1472 20.1938 20.3849 19.9324ZM13.249 22.8736C12.8507 22.7599 12.4356 22.9905 12.3218 23.3888C12.2081 23.7871 12.4387 24.2022 12.837 24.316C13.31 24.4511 13.6345 24.562 13.8713 24.662C13.6317 24.8766 13.4073 25.1343 13.2286 25.4181C13.2243 25.4249 13.2201 25.4317 13.2159 25.4385C13.2048 25.4421 13.1937 25.446 13.1827 25.4501C13.0162 25.5126 12.752 25.5078 12.3144 25.4501C12.2742 25.4448 12.2314 25.4389 12.1869 25.4328L12.1869 25.4328C12.0274 25.4109 11.8457 25.386 11.6834 25.3736C11.4832 25.3583 11.1994 25.3501 10.9269 25.44C10.5335 25.5699 10.3199 25.994 10.4497 26.3873C10.5789 26.7788 10.9996 26.9922 11.3913 26.8663L11.3906 26.8667C11.3906 26.8668 11.392 26.8667 11.3948 26.8665C11.409 26.8653 11.46 26.8609 11.5692 26.8693C11.6824 26.8779 11.8013 26.8942 11.9498 26.9145C12.002 26.9216 12.0578 26.9292 12.1184 26.9372C12.3177 26.9635 12.5756 26.9961 12.8548 26.9951C12.8872 27.1781 12.9488 27.3567 13.0422 27.5258C12.8133 27.8403 12.57 28.2051 12.3627 28.518L12.2786 28.6448C12.1562 28.8298 12.0473 28.9943 11.9565 29.1269C11.9009 29.208 11.8574 29.2694 11.8255 29.3119C11.8154 29.3253 11.8081 29.3347 11.8033 29.3407C11.5239 29.6147 11.5012 30.0623 11.7596 30.3637C12.0291 30.6782 12.5026 30.7147 12.8171 30.4451C12.9103 30.3653 12.9887 30.2609 13.0249 30.2127C13.0765 30.1441 13.1344 30.0616 13.1941 29.9744C13.2922 29.8312 13.4093 29.6542 13.532 29.4689L13.5322 29.4687L13.6129 29.3468C13.8271 29.0237 14.0479 28.6941 14.2417 28.4265C14.4384 28.4683 14.6386 28.4753 14.8347 28.4526C14.9463 28.4398 15.0554 28.4176 15.1615 28.3879C15.1669 28.3988 15.1723 28.4096 15.1777 28.4204C15.2261 28.5175 15.2719 28.6096 15.324 28.7213C15.4916 29.0804 15.5885 29.3727 15.5885 29.6313C15.5885 30.0456 15.9243 30.3813 16.3385 30.3813C16.7527 30.3813 17.0885 30.0456 17.0885 29.6313C17.0885 29.0292 16.8703 28.4877 16.6833 28.087C16.6281 27.9687 16.5616 27.8345 16.5037 27.7179C16.4801 27.6704 16.458 27.6258 16.4387 27.5864C16.5904 27.4273 16.7258 27.2535 16.8387 27.0717C16.8892 27.1154 16.9419 27.1602 16.9963 27.205C17.3145 27.4672 17.7736 27.8049 18.2865 27.9463C18.6858 28.0564 19.0987 27.8219 19.2088 27.4226C19.3189 27.0233 19.0844 26.6103 18.6851 26.5002C18.4964 26.4482 18.2433 26.2889 17.9502 26.0473C17.8125 25.9339 17.6844 25.8183 17.5626 25.7081L17.5438 25.6912C17.4398 25.5971 17.3146 25.4838 17.2093 25.4061C16.5142 24.8928 16.1876 24.5756 15.8983 24.2946L15.8983 24.2946C15.7631 24.1633 15.636 24.0399 15.4833 23.908C14.9794 23.4732 14.4445 23.2151 13.249 22.8736ZM15.6585 26.0973C15.4368 25.9137 15.2523 25.749 15.0968 25.6048C15.0551 25.6322 15.0099 25.6648 14.962 25.7031C14.785 25.8446 14.6177 26.0272 14.498 26.2173C14.3751 26.4124 14.3301 26.5705 14.3277 26.6731C14.3259 26.7471 14.342 26.8094 14.4268 26.8881C14.4981 26.9545 14.5642 26.9739 14.6628 26.9625C14.7858 26.9483 14.9591 26.88 15.1482 26.7354C15.3338 26.5936 15.4925 26.41 15.5932 26.2319C15.6219 26.1811 15.643 26.1362 15.6585 26.0973Z" fill="#222222"/>
</svg>
