<svg width="40" height="40" viewBox="0 0 40 40" fill="none" xmlns="http://www.w3.org/2000/svg">
<rect x="0.5" y="0.5" width="39" height="39" rx="19.5" stroke="#222222"/>
<g clip-path="url(#clip0_4306_22952)">
<path d="M17.3947 23.351C17.0768 24.8425 16.0439 26.0341 16.9057 28.2905C17.3947 29.5708 19.8202 31.4692 22.2045 29.4483C23.5249 28.3292 23.4289 25.6624 23.3809 22.9066M17.3947 23.351C17.5785 22.489 17.6204 21.4967 17.1848 20.0582C16.822 18.6034 14.9741 13.9294 17.6777 10.6787C20.6502 7.10479 24.8164 13.7716 23.5284 18.6451C23.3264 19.8627 23.3543 21.3797 23.3809 22.9066M17.3947 23.351C17.4944 23.0118 17.5848 22.2869 18.9634 23.351C19.936 24.1018 21.6908 23.9041 22.3714 23.1204C22.8544 22.5643 23.251 22.9066 23.3809 22.9066" stroke="#222222" stroke-width="1.5" stroke-linecap="round" stroke-linejoin="round"/>
<path d="M17.5996 21.2727C18.2113 20.9974 18.6168 16.8951 18.7768 16.4607C18.9757 15.9206 21.1397 15.7428 21.3682 16.4608C21.5538 17.0442 22.6391 20.4231 23.312 21.0959" stroke="#222222" stroke-width="1.5" stroke-linecap="round" stroke-linejoin="round"/>
<path d="M27.9581 17.6321L26.1872 15.7693M26.1872 15.7693L27.9064 13.9099M26.1872 15.7693L30.8226 15.7748" stroke="#222222" stroke-width="1.5" stroke-linecap="round" stroke-linejoin="round"/>
<path d="M12.0419 17.6339L13.8192 15.7771M13.8192 15.7771L12.1064 13.9118M13.8192 15.7771L9.18378 15.7668" stroke="#222222" stroke-width="1.5" stroke-linecap="round" stroke-linejoin="round"/>
<path d="M18.0948 23.376C17.7196 24.8528 16.0759 27.8712 19.8167 28.3117C23.5576 28.7523 22.7552 25.5362 23.0767 24.1449" stroke="#222222" stroke-width="1.5" stroke-linecap="round" stroke-linejoin="round"/>
</g>
<defs>
<clipPath id="clip0_4306_22952">
<rect width="24" height="24" fill="white" transform="translate(8 8)"/>
</clipPath>
</defs>
</svg>
